<svg xmlns="http://www.w3.org/2000/svg" viewBox="0 0 900 450" width="100%" height="100%">
  <title>Cargo Truck - Eco-Transit</title>
  <defs>
    <pattern id="corrugation-2" width="14" height="160" patternUnits="userSpaceOnUse">
      <rect x="0" y="0" width="7" height="160" fill="#000000" opacity="0.06"/>
      <rect x="7" y="0" width="7" height="160" fill="#FFFFFF" opacity="0.04"/>
    </pattern>
    <g id="wheel-2">
      <circle cx="0" cy="0" r="28" fill="#212529"/>
      <circle cx="0" cy="0" r="20" fill="#495057"/>
      <circle cx="0" cy="0" r="12" fill="#ADB5BD"/>
      <circle cx="0" cy="0" r="4" fill="#212529"/>
    </g>
  </defs>

  <ellipse cx="455" cy="365" rx="360" ry="8" fill="#000000" opacity="0.1"/>
  
  <rect x="120" y="300" width="230" height="10" fill="#343A40" rx="3"/>
  <rect x="210" y="298" width="60" height="22" rx="8" fill="#ADB5BD"/>
  <rect x="220" y="305" width="40" height="4" fill="#212529"/>
  
  <rect x="330" y="290" width="480" height="10" fill="#212529"/>
  <path d="M 420 300 L 428 300 L 425 330 L 417 330 Z" fill="#343A40"/>
  <rect x="412" y="325" width="20" height="5" rx="2" fill="#212529"/>

  <rect x="312" y="100" width="8" height="150" fill="#ADB5BD" rx="4"/>
  
  <path d="M 120 300 L 120 250 L 140 240 L 195 230 L 210 150 C 215 135, 235 130, 270 130 L 320 130 L 320 300 Z" fill="#2B8A3E"/>
  <path d="M 120 285 L 320 285 L 320 300 L 120 300 Z" fill="#000000" opacity="0.2"/>
  
  <path d="M 205 230 L 218 150 C 220 140, 230 135, 245 135 L 270 135 L 270 230 Z" fill="#212529"/>
  <path d="M 208 225 L 219 155 L 225 155 L 214 225 Z" fill="#FFFFFF" opacity="0.15"/>
  
  <rect x="117" y="245" width="10" height="40" fill="#CED4DA" rx="2"/> <rect x="110" y="285" width="20" height="15" fill="#495057" rx="4"/> <rect x="125" y="255" width="8" height="10" fill="#F8F9FA" rx="2"/>  <path d="M 270 230 L 270 285 M 205 230 L 205 285" stroke="#000000" stroke-width="2" opacity="0.15" fill="none"/> <rect x="245" y="245" width="12" height="4" rx="2" fill="#000000" opacity="0.3"/> <rect x="340" y="130" width="460" height="160" fill="#40C057"/>
  <rect x="340" y="130" width="460" height="160" fill="url(#corrugation-2)"/>
  <rect x="340" y="280" width="460" height="10" fill="#000000" opacity="0.25"/> <rect x="340" y="130" width="10" height="160" fill="#FFFFFF" opacity="0.1"/> <rect x="790" y="130" width="10" height="160" fill="#000000" opacity="0.2"/> <rect x="340" y="130" width="460" height="160" fill="none" stroke="#2B8A3E" stroke-width="3"/>
  
  <use href="#wheel-2" x="165" y="330"/>
  <use href="#wheel-2" x="270" y="330"/>
  <use href="#wheel-2" x="330" y="330"/>
  <use href="#wheel-2" x="690" y="330"/>
  <use href="#wheel-2" x="750" y="330"/>
</svg>